<svg width="78" height="70" viewBox="0 0 78 70" fill="none" xmlns="http://www.w3.org/2000/svg">
<g clip-path="url(#clip0_0_1)">
<rect width="1440" height="9137" transform="translate(-914 -5768)" fill="white"/>
<g filter="url(#filter0_d_0_1)">
<rect x="-65.3896" y="-33.8163" width="208.863" height="137.87" rx="4" fill="white"/>
<g style="mix-blend-mode:difference">
<path d="M39.6998 33.6305C32.4894 27.6082 23.0395 30.7457 19.2158 33.0672L19.3695 36.2422C20.1478 34.9722 23.8247 33.5964 25.5658 33.0672C24.7977 41.5168 39.2389 39.11 40.1095 39.11C40.98 39.11 39.3413 44.0261 41.1849 44.1286C42.6597 44.2105 43.165 40.3049 43.2333 38.3418C48.4772 36.867 52.0755 37.3859 53.2192 37.8297L51.6829 35.3204C49.1429 34.7879 44.9915 35.5424 43.2333 35.9862C43.3152 29.3903 41.9018 26.5123 41.1849 25.8978L36.9857 27.8438C38.9111 29.8922 39.5974 32.5551 39.6998 33.6305Z" fill="white"/>
<path d="M0.0616266 21.1356C-0.716764 31.0088 6.18974 39.4858 9.7403 42.4901C7.231 45.8017 2.38652 54.4835 3.08297 62.718C3.95354 73.0112 12.5246 72.9712 18.0363 56.1119C21.5185 45.4603 17.9305 23.8463 17.729 17.8581C17.3705 7.20648 20.3407 0.750456 19.1117 0.29314C14.7076 -1.34558 1.03461 8.79398 0.0616266 21.1356Z" fill="white"/>
<path d="M47.5421 21.1356C46.7637 31.0088 53.6702 39.4858 57.2208 42.4901C54.7115 45.8017 49.867 54.4835 50.5634 62.718C51.434 73.0112 60.0051 72.9712 65.5167 56.1119C68.999 45.4603 65.411 23.8463 65.2095 17.8581C64.851 7.20648 67.8212 0.750456 66.5921 0.29314C62.1881 -1.34558 48.5151 8.79398 47.5421 21.1356Z" fill="white"/>
<path d="M39.4909 36.6019C37.6473 33.5805 31.151 31.3785 30.8873 34.1438C30.5798 37.37 37.9035 37.114 39.4909 36.6019Z" fill="#070808"/>
<path d="M5.90099 19.3429C4.47867 29.3381 8.99066 37.42 11.5853 40.2366L14.2483 37.3688C9.41407 21.9239 14.0776 8.24743 16.9624 3.05816C15.9382 0.907346 7.74465 6.38681 5.90099 19.3429Z" fill="#070808"/>
<path d="M53.3795 19.3429C51.9572 29.3381 56.4692 37.42 59.0638 40.2366L61.7268 37.3688C56.8926 21.9239 61.5561 8.24743 64.4409 3.05816C63.4167 0.907346 55.2232 6.38681 53.3795 19.3429Z" fill="#070808"/>
<path d="M14.4532 40.493C8.46069 46.2285 3.03242 64.0007 9.02495 65.4834C12.9672 66.4588 17.5248 54.9342 14.4532 40.493Z" fill="#070808"/>
<path d="M61.9337 40.493C55.9412 46.2286 50.5129 64.0008 56.5054 65.4835C60.4476 66.4589 65.0053 54.9342 61.9337 40.493Z" fill="#070808"/>
<path d="M77.3876 25.2835C76.0357 23.5219 69.5184 28.9194 66.4287 31.8384L66.8384 35.0646C73.2908 27.8952 79.0776 27.4855 77.3876 25.2835Z" fill="white"/>
</g>
<rect x="-64.8896" y="-33.3163" width="207.863" height="136.87" rx="3.5" stroke="black" stroke-opacity="0.1"/>
</g>
</g>
<defs>
<filter id="filter0_d_0_1" x="-83.3896" y="-38.8163" width="244.863" height="173.87" filterUnits="userSpaceOnUse" color-interpolation-filters="sRGB">
<feFlood flood-opacity="0" result="BackgroundImageFix"/>
<feColorMatrix in="SourceAlpha" type="matrix" values="0 0 0 0 0 0 0 0 0 0 0 0 0 0 0 0 0 0 127 0" result="hardAlpha"/>
<feOffset dy="13"/>
<feGaussianBlur stdDeviation="9"/>
<feComposite in2="hardAlpha" operator="out"/>
<feColorMatrix type="matrix" values="0 0 0 0 0 0 0 0 0 0 0 0 0 0 0 0 0 0 0.06 0"/>
<feBlend mode="normal" in2="BackgroundImageFix" result="effect1_dropShadow_0_1"/>
<feBlend mode="normal" in="SourceGraphic" in2="effect1_dropShadow_0_1" result="shape"/>
</filter>
<clipPath id="clip0_0_1">
<rect width="1440" height="9137" fill="white" transform="translate(-914 -5768)"/>
</clipPath>
</defs>
</svg>
