<svg width="97" height="48" viewBox="0 0 97 48" fill="none" xmlns="http://www.w3.org/2000/svg">
<path d="M41.7514 1.02587H28.251V2.68746H29.4972C30.8264 2.68746 31.8511 4.21059 32.1973 4.97215L44.4515 41.5271L55.6672 11.6185L67.7137 41.5271L80.1756 4.97215C80.1756 4.21059 80.7572 2.68746 83.0834 2.68746C85.4097 2.68746 86.2681 4.21059 86.4066 4.97215V34.2577C86.4066 41.4025 82.2526 46.0965 80.1756 47.5504H83.0834C84.3298 47.5504 93.053 39.8655 93.053 31.5576V4.97215C93.053 2.97824 94.1607 2.61823 94.7146 2.68746H96.9992V0.818176H73.1139V2.68746H74.9832C76.4786 2.68746 76.2986 4.21059 76.0217 4.97215L68.7522 29.2729L57.1211 1.02587L46.1131 29.2729L39.259 4.97215C38.7605 2.97824 39.7436 2.61823 40.2975 2.68746H41.7514V1.02587Z" fill="#076787"/>
<path d="M16.8284 1.23352H0.62793V2.68741H3.12031C4.44958 2.68741 4.92037 3.79514 4.9896 4.349V35.0884C4.9896 37.2485 3.88188 37.65 3.32801 37.5808H1.45872V39.0347H16.2053V37.5808H14.1283C12.1344 37.5808 11.636 35.9192 11.636 35.0884V23.4573H16.6207C18.49 26.1574 22.7686 32.2637 24.9287 35.0884C27.0887 37.9131 30.1211 38.8962 31.3673 39.0347H38.8445V37.5808C34.8567 37.5808 32.4751 35.3653 31.7827 34.2576L20.9824 21.588C32.1981 10.3723 25.3441 1.23352 16.8284 1.23352Z" fill="#076787"/>
<path d="M20.9828 9.12482C20.1521 4.80469 14.9596 3.31048 11.4287 4.14005V20.3408C12.7441 20.7562 16.1227 20.965 18.2828 20.1342C20.9828 19.0957 22.0213 14.525 20.9828 9.12482Z" fill="white"/>
</svg>
